<svg width="202" height="54" viewBox="0 0 202 54" fill="none" xmlns="http://www.w3.org/2000/svg">
<path d="M23.4296 44C26.1378 36.8139 32.9147 32.0705 40.4732 32.0705C48.0278 32.0705 54.8018 36.8087 57.5129 43.9892M30.4702 43.9966C32.6354 40.4572 36.4406 38.306 40.5354 38.306C44.6312 38.306 48.437 40.4582 50.6019 43.9985M48.4984 23.6356C46.3874 25.8501 43.4858 27.0999 40.4549 27.0999C29.5538 27.0999 31.7624 15.7167 21.9621 15.7167C17.3205 15.7167 13.3263 19.0579 12.425 23.6947M50.5879 18.5001C51.328 18.2247 52.1101 18.0839 52.8982 18.0839C56.6164 18.0839 59.6305 21.1532 59.6305 24.9395C59.6305 28.2309 57.3335 31.0578 54.1584 31.6739M63.7196 26.8409C63.7356 26.8408 63.7517 26.8408 63.7677 26.8408C67.4859 26.8408 70.5 29.9102 70.5 33.6964C70.5 37.4827 67.4857 40.5521 63.7677 40.5521C62.7088 40.5521 61.6648 40.2978 60.7207 39.8097M17.2804 40.5518C17.2644 40.552 17.2483 40.552 17.2323 40.552C13.5141 40.552 10.5 37.4825 10.5 33.6962C10.5 29.9099 13.5143 26.8406 17.2323 26.8406C20.0818 26.8406 22.6227 28.6674 23.5763 31.4019M46.5102 15.1662C46.5102 18.5717 43.7991 21.3324 40.4549 21.3324C37.1107 21.3324 34.3996 18.5717 34.3996 15.1662C34.3996 11.7607 37.1107 9 40.4549 9C43.7991 9 46.5102 11.7607 46.5102 15.1662Z" stroke="#012B1D" stroke-width="3.24233" stroke-miterlimit="2.61313" stroke-linecap="round" stroke-linejoin="round"/>
<path d="M104.173 41.4748C102.82 41.4748 101.521 41.3043 100.267 40.9555C99.0136 40.6068 97.8434 40.1172 96.7644 39.4942C95.6778 38.8709 94.6899 38.1217 93.7932 37.2464C92.8965 36.3711 92.1292 35.3994 91.4909 34.3238C90.8602 33.2482 90.3663 32.0984 90.0244 30.867C89.6748 29.6356 89.5 28.3597 89.5 27.0394C89.5 25.7635 89.6671 24.5247 90.0015 23.3154C90.3283 22.1064 90.7994 20.9566 91.415 19.881C92.0304 18.7979 92.775 17.8113 93.6565 16.9138C94.538 16.0163 95.5259 15.2373 96.6124 14.5772C97.7067 13.9169 98.8995 13.4052 100.191 13.0416C101.483 12.6781 102.843 12.5 104.287 12.5C106.217 12.5 108.079 12.8635 109.872 13.5831C111.665 14.3026 113.306 15.393 114.796 16.8545C115.176 17.2551 115.373 17.7001 115.373 18.1748C115.373 18.4271 115.313 18.6644 115.206 18.8944C115.092 19.1243 114.948 19.3321 114.773 19.5027C114.591 19.6732 114.378 19.8142 114.135 19.9181C113.892 20.0145 113.633 20.0664 113.367 20.0664C113.117 20.0664 112.873 20.022 112.645 19.9403C112.417 19.8513 112.212 19.7178 112.03 19.5471C110.92 18.4864 109.705 17.7001 108.39 17.1881C107.075 16.6763 105.7 16.4167 104.264 16.4167C102.767 16.4167 101.354 16.6911 100.047 17.24C98.7321 17.789 97.5848 18.5381 96.6046 19.4951C95.6244 20.4521 94.8492 21.5722 94.2794 22.8556C93.7096 24.1463 93.4208 25.5259 93.4208 26.9948C93.4208 28.4263 93.6942 29.7912 94.2414 31.0746C94.7961 32.3654 95.556 33.4854 96.5285 34.4499C97.5011 35.4069 98.6485 36.1783 99.9631 36.7495C101.285 37.3207 102.729 37.6026 104.287 37.6026C105.723 37.6026 107.083 37.3652 108.367 36.8831C109.651 36.4084 110.852 35.6221 111.969 34.539C112.143 34.3611 112.356 34.2274 112.607 34.1384C112.865 34.042 113.124 33.9974 113.39 33.9974C113.671 33.9974 113.929 34.0418 114.165 34.1457C114.408 34.2496 114.605 34.3831 114.773 34.5612C114.932 34.7317 115.061 34.9322 115.16 35.1547C115.259 35.3847 115.305 35.6146 115.305 35.8668C115.305 36.401 115.122 36.846 114.75 37.2095C113.261 38.6708 111.619 39.7464 109.818 40.4363C108.01 41.1262 106.133 41.4748 104.173 41.4748H104.173Z" fill="#012B1D"/>
<path d="M117.675 31.3419C117.675 29.8211 117.972 28.3894 118.564 27.0468C119.157 25.6968 119.97 24.5173 120.996 23.5159C122.022 22.5071 123.215 21.7133 124.59 21.1273C125.965 20.5413 127.432 20.2446 128.989 20.2446H129.096C129.764 20.2446 130.274 20.43 130.623 20.7935C130.973 21.1644 131.148 21.6244 131.148 22.1807C131.148 22.7371 130.95 23.197 130.547 23.5678C130.144 23.9313 129.666 24.1167 129.096 24.1167H128.99C127.979 24.1167 127.029 24.3095 126.14 24.6878C125.244 25.0735 124.461 25.5929 123.792 26.253C123.116 26.9059 122.577 27.6773 122.189 28.5601C121.794 29.4354 121.596 30.3775 121.596 31.3716V39.3014C121.596 39.8503 121.414 40.3028 121.049 40.6663C120.684 41.0298 120.236 41.2078 119.704 41.2078C119.438 41.2078 119.18 41.1634 118.937 41.0668C118.686 40.9705 118.473 40.8368 118.291 40.6663C118.101 40.4882 117.956 40.2879 117.842 40.0579C117.728 39.8279 117.675 39.5683 117.675 39.2938V31.3417L117.675 31.3419Z" fill="#012B1D"/>
<path d="M134.908 32.6179C135.075 33.3524 135.357 34.0421 135.752 34.6652C136.155 35.2958 136.648 35.8447 137.226 36.3046C137.803 36.7718 138.449 37.1279 139.171 37.3877C139.893 37.6473 140.653 37.7808 141.458 37.7808C142.226 37.7808 142.864 37.7139 143.365 37.5731C143.875 37.4396 144.376 37.2245 144.885 36.9352C145.295 36.7052 145.691 36.5866 146.063 36.5866C146.329 36.5866 146.58 36.6385 146.808 36.7498C147.036 36.8537 147.241 37.002 147.423 37.1801C147.598 37.3655 147.742 37.5806 147.841 37.8254C147.947 38.0702 148.001 38.3225 148.001 38.5821C148.001 39.0493 147.818 39.4574 147.461 39.8133C147.112 40.1695 146.633 40.4662 146.033 40.7109C145.425 40.9631 144.733 41.1485 143.935 41.2822C143.145 41.4083 142.317 41.4751 141.458 41.4751C139.954 41.4751 138.54 41.1931 137.211 40.6369C135.889 40.0804 134.726 39.3239 133.738 38.3669C132.75 37.4099 131.975 36.2899 131.405 34.9991C130.836 33.7084 130.547 32.3361 130.547 30.8673C130.547 29.3911 130.836 28.0113 131.405 26.7206C131.975 25.4298 132.75 24.3096 133.738 23.3528C134.726 22.3958 135.889 21.6393 137.211 21.0829C138.541 20.5266 139.954 20.2446 141.458 20.2446C142.94 20.2446 144.338 20.5191 145.66 21.068C146.983 21.6244 148.138 22.3736 149.125 23.3304C150.113 24.2874 150.896 25.4075 151.473 26.6909C152.051 27.9743 152.347 29.339 152.362 30.793C152.362 31.3123 152.188 31.75 151.83 32.0986C151.473 32.4472 151.01 32.6178 150.448 32.6178H134.909L134.908 32.6179ZM148.335 29.4133C148.198 28.6344 147.932 27.9076 147.522 27.2399C147.112 26.5723 146.61 25.9936 146.01 25.504C145.409 25.0071 144.726 24.6287 143.958 24.3542C143.191 24.0798 142.385 23.9388 141.519 23.9388C140.645 23.9388 139.832 24.0798 139.073 24.3616C138.313 24.6436 137.644 25.0366 137.044 25.5336C136.451 26.0381 135.965 26.6167 135.577 27.2842C135.19 27.9519 134.931 28.6566 134.802 29.4132H148.335V29.4133Z" fill="#012B1D"/>
<path d="M157.157 30.8673C157.157 31.7946 157.339 32.6624 157.704 33.4784C158.069 34.2944 158.562 35.0065 159.193 35.6222C159.816 36.2379 160.553 36.72 161.397 37.0762C162.233 37.4248 163.144 37.6028 164.109 37.6028C165.09 37.6028 166.009 37.4249 166.845 37.0762C167.688 36.72 168.426 36.2379 169.048 35.6222C169.679 35.0065 170.166 34.2944 170.523 33.4784C170.88 32.6624 171.062 31.7946 171.062 30.8673C171.062 29.9476 170.88 29.0796 170.523 28.2636C170.166 27.4476 169.679 26.7355 169.048 26.1273C168.425 25.5264 167.688 25.0441 166.845 24.6882C166.009 24.3395 165.09 24.1615 164.109 24.1615C163.144 24.1615 162.233 24.3395 161.397 24.6882C160.553 25.0443 159.816 25.5264 159.193 26.1273C158.562 26.7355 158.069 27.4476 157.704 28.2636C157.339 29.0796 157.157 29.9474 157.157 30.8673ZM153.236 30.8673C153.236 29.406 153.525 28.0336 154.094 26.7428C154.664 25.4521 155.447 24.3245 156.435 23.3602C157.423 22.3958 158.57 21.6393 159.884 21.0829C161.199 20.5266 162.612 20.2446 164.109 20.2446C165.621 20.2446 167.042 20.5266 168.364 21.0829C169.687 21.6393 170.842 22.3958 171.822 23.3602C172.802 24.3245 173.569 25.4521 174.139 26.7428C174.702 28.0336 174.983 29.4058 174.983 30.8673C174.983 32.3361 174.702 33.7084 174.139 34.9991C173.569 36.2899 172.802 37.4101 171.822 38.3669C170.841 39.3239 169.687 40.0804 168.364 40.6369C167.042 41.1931 165.621 41.4751 164.109 41.4751C162.612 41.4751 161.199 41.1931 159.884 40.6369C158.57 40.0804 157.423 39.3239 156.435 38.3669C155.447 37.4099 154.664 36.2899 154.094 34.9991C153.525 33.7084 153.236 32.3361 153.236 30.8673Z" fill="#012B1D"/>
<path d="M186.73 32.484H183.972H182.703C181.814 32.484 180.993 32.3134 180.233 31.9721C179.473 31.6309 178.82 31.1785 178.265 30.5997C177.71 30.0286 177.277 29.3683 176.966 28.6117C176.654 27.8625 176.495 27.0614 176.495 26.2231C176.495 25.3998 176.654 24.6209 176.981 23.8939C177.308 23.1743 177.748 22.5363 178.303 21.9949C178.85 21.4534 179.511 21.0232 180.263 20.7115C181.016 20.4 181.829 20.2441 182.687 20.2441H190.415C190.947 20.2441 191.403 20.4073 191.791 20.7264C192.178 21.0453 192.368 21.5127 192.368 22.1284C192.368 22.4029 192.322 22.6626 192.224 22.9C192.132 23.1447 191.996 23.3525 191.828 23.5379C191.654 23.716 191.456 23.8643 191.236 23.9607C191.015 24.0646 190.772 24.1166 190.521 24.1166H190.415H182.71C182.383 24.1166 182.079 24.1759 181.806 24.302C181.532 24.4207 181.289 24.5913 181.084 24.7991C180.879 25.0069 180.712 25.2441 180.59 25.5112C180.476 25.7783 180.415 26.0601 180.415 26.3643C180.415 26.6981 180.476 26.9949 180.59 27.2693C180.712 27.5438 180.879 27.7812 181.092 27.9741C181.312 28.167 181.555 28.3227 181.829 28.4413C182.102 28.5526 182.399 28.6119 182.71 28.6119H184.002H187.193C188.097 28.6119 188.941 28.7824 189.708 29.1237C190.483 29.4648 191.152 29.9248 191.707 30.5033C192.262 31.082 192.702 31.757 193.021 32.521C193.341 33.2851 193.5 34.0938 193.5 34.932C193.5 35.7851 193.341 36.5936 193.021 37.3503C192.702 38.1144 192.262 38.7819 191.699 39.3531C191.129 39.9243 190.461 40.3768 189.678 40.7106C188.903 41.0443 188.06 41.2077 187.155 41.2077H177.915C177.391 41.2077 176.966 41.0222 176.624 40.6588C176.282 40.2878 176.115 39.813 176.115 39.227C176.115 38.641 176.282 38.1812 176.624 37.8399C176.966 37.5061 177.391 37.3356 177.915 37.3356H186.821C187.148 37.3356 187.474 37.2836 187.801 37.1724C188.128 37.0685 188.424 36.9053 188.69 36.6901C188.956 36.4751 189.169 36.2154 189.336 35.9112C189.496 35.5997 189.579 35.2362 189.579 34.8207C189.579 34.4202 189.503 34.0789 189.344 33.7971C189.192 33.5078 188.979 33.2704 188.721 33.085C188.462 32.8996 188.174 32.7586 187.847 32.6547C187.52 32.5583 187.186 32.4988 186.844 32.4841H186.798H186.73L186.73 32.484Z" fill="#012B1D"/>
</svg>
