<svg width="179" height="52" viewBox="0 0 179 52" fill="none" xmlns="http://www.w3.org/2000/svg">
<g clip-path="url(#clip0_85_1046)">
<mask id="mask0_85_1046" style="mask-type:luminance" maskUnits="userSpaceOnUse" x="0" y="0" width="53" height="52">
<path d="M52.5 26C52.5 11.6406 40.8594 0 26.5 0C12.1406 0 0.5 11.6406 0.5 26C0.5 40.3594 12.1406 52 26.5 52C40.8594 52 52.5 40.3594 52.5 26Z" fill="white"/>
</mask>
<g mask="url(#mask0_85_1046)">
<path d="M0.5 40.1079C19.4511 32.3484 30.7664 31.4044 53.0532 40.1079" stroke="#008080" stroke-width="7.37589"/>
<path d="M0.5 12.8169C19.4511 20.5765 30.7664 21.5205 53.0532 12.8169" stroke="#008080" stroke-width="7.37589"/>
<path d="M0.5 50.712C19.4511 42.9524 30.7664 42.0084 53.0532 50.712" stroke="#008080" stroke-width="7.37589"/>
<path d="M0.5 2.21289C19.4511 9.97244 30.7664 10.9164 53.0532 2.21289" stroke="#008080" stroke-width="7.37589"/>
</g>
<path d="M66.376 34.6039V30.6259H69.912C70.796 30.6259 71.5933 30.4959 72.304 30.2359C73.0147 29.9586 73.6213 29.5772 74.124 29.0919C74.6267 28.5892 75.008 27.9912 75.268 27.2979C75.528 26.5872 75.658 25.8072 75.658 24.9579C75.658 24.0739 75.528 23.2852 75.268 22.5919C75.008 21.8986 74.6267 21.3092 74.124 20.8239C73.6213 20.3386 73.0147 19.9746 72.304 19.7319C71.5933 19.4719 70.796 19.3419 69.912 19.3419H66.376V15.3639H69.678C71.394 15.3639 72.8933 15.6152 74.176 16.1179C75.4587 16.6206 76.5333 17.3052 77.4 18.1719C78.2667 19.0386 78.908 20.0352 79.324 21.1619C79.7573 22.2712 79.974 23.4412 79.974 24.6719V25.2439C79.974 26.3879 79.7573 27.5232 79.324 28.6499C78.908 29.7592 78.2667 30.7646 77.4 31.6659C76.5333 32.5499 75.4587 33.2606 74.176 33.7979C72.8933 34.3352 71.394 34.6039 69.678 34.6039H66.376ZM62.632 34.6039V15.3639H66.896V34.6039H62.632ZM82.6065 34.4999V20.2519H86.7665V34.4999H82.6065ZM80.7085 23.3199V20.2519H86.7665V23.3199H80.7085ZM84.2185 18.8479C83.4385 18.8479 82.8578 18.6486 82.4765 18.2499C82.1125 17.8339 81.9305 17.3139 81.9305 16.6899C81.9305 16.0486 82.1125 15.5286 82.4765 15.1299C82.8578 14.7139 83.4385 14.5059 84.2185 14.5059C84.9985 14.5059 85.5705 14.7139 85.9345 15.1299C86.3158 15.5286 86.5065 16.0486 86.5065 16.6899C86.5065 17.3139 86.3158 17.8339 85.9345 18.2499C85.5705 18.6486 84.9985 18.8479 84.2185 18.8479ZM95.4501 40.1679C94.7568 40.1679 94.0461 40.1419 93.3181 40.0899C92.5901 40.0379 91.9228 39.9686 91.3161 39.8819V36.3719C91.9228 36.4586 92.5901 36.5279 93.3181 36.5799C94.0634 36.6492 94.7394 36.6839 95.3461 36.6839C96.4728 36.6839 97.3828 36.5539 98.0761 36.2939C98.7868 36.0339 99.3068 35.6352 99.6361 35.0979C99.9654 34.5779 100.13 33.9019 100.13 33.0699V30.2359L100.884 28.5719C100.849 29.8372 100.598 30.9206 100.13 31.8219C99.6794 32.7232 99.0468 33.4166 98.2321 33.9019C97.4174 34.3699 96.4468 34.6039 95.3201 34.6039C94.3494 34.6039 93.4654 34.4306 92.6681 34.0839C91.8881 33.7199 91.2208 33.2172 90.6661 32.5759C90.1114 31.9346 89.6868 31.1892 89.3921 30.3399C89.0974 29.4732 88.9501 28.5372 88.9501 27.5319V26.9339C88.9501 25.9286 89.1061 24.9926 89.4181 24.1259C89.7301 23.2592 90.1808 22.5052 90.7701 21.8639C91.3594 21.2226 92.0614 20.7286 92.8761 20.3819C93.6908 20.0179 94.5921 19.8359 95.5801 19.8359C96.7241 19.8359 97.7121 20.0872 98.5441 20.5899C99.3934 21.0926 100.061 21.8292 100.546 22.7999C101.031 23.7706 101.291 24.9406 101.326 26.3099L100.754 26.4659V20.2519H104.056V32.8099C104.056 34.5606 103.744 35.9732 103.12 37.0479C102.496 38.1226 101.543 38.9112 100.26 39.4139C98.9948 39.9166 97.3914 40.1679 95.4501 40.1679ZM96.6201 31.0939C97.2614 31.0939 97.8421 30.9552 98.3621 30.6779C98.8821 30.3832 99.2894 29.9672 99.5841 29.4299C99.8961 28.8926 100.052 28.2426 100.052 27.4799V26.7259C100.052 25.9806 99.8874 25.3566 99.5581 24.8539C99.2461 24.3339 98.8301 23.9439 98.3101 23.6839C97.7901 23.4066 97.2354 23.2679 96.6461 23.2679C95.9528 23.2679 95.3374 23.4326 94.8001 23.7619C94.2628 24.0912 93.8468 24.5506 93.5521 25.1399C93.2574 25.7292 93.1101 26.4226 93.1101 27.2199C93.1101 28.0346 93.2574 28.7366 93.5521 29.3259C93.8641 29.8979 94.2801 30.3399 94.8001 30.6519C95.3374 30.9466 95.9441 31.0939 96.6201 31.0939ZM107.554 34.4999V20.2519H111.714V34.4999H107.554ZM105.656 23.3199V20.2519H111.714V23.3199H105.656ZM109.166 18.8479C108.386 18.8479 107.806 18.6486 107.424 18.2499C107.06 17.8339 106.878 17.3139 106.878 16.6899C106.878 16.0486 107.06 15.5286 107.424 15.1299C107.806 14.7139 108.386 14.5059 109.166 14.5059C109.946 14.5059 110.518 14.7139 110.882 15.1299C111.264 15.5286 111.454 16.0486 111.454 16.6899C111.454 17.3139 111.264 17.8339 110.882 18.2499C110.518 18.6486 109.946 18.8479 109.166 18.8479ZM123.726 34.9939C122.01 34.9939 120.537 34.6992 119.306 34.1099C118.075 33.5032 117.07 32.7146 116.29 31.7439C115.51 30.7559 114.929 29.6986 114.548 28.5719C114.184 27.4279 114.002 26.3186 114.002 25.2439V24.6719C114.002 23.4932 114.193 22.3319 114.574 21.1879C114.955 20.0266 115.536 18.9779 116.316 18.0419C117.113 17.1059 118.11 16.3606 119.306 15.8059C120.519 15.2339 121.949 14.9479 123.596 14.9479C125.312 14.9479 126.829 15.2686 128.146 15.9099C129.463 16.5512 130.512 17.4439 131.292 18.5879C132.089 19.7146 132.557 21.0406 132.696 22.5659H128.406C128.285 21.8032 128.007 21.1532 127.574 20.6159C127.141 20.0786 126.577 19.6626 125.884 19.3679C125.208 19.0732 124.445 18.9259 123.596 18.9259C122.747 18.9259 121.993 19.0732 121.334 19.3679C120.675 19.6626 120.121 20.0786 119.67 20.6159C119.237 21.1532 118.899 21.7946 118.656 22.5399C118.431 23.2679 118.318 24.0826 118.318 24.9839C118.318 25.8679 118.431 26.6826 118.656 27.4279C118.899 28.1559 119.245 28.7972 119.696 29.3519C120.164 29.8892 120.736 30.3052 121.412 30.5999C122.088 30.8772 122.859 31.0159 123.726 31.0159C125.043 31.0159 126.153 30.6952 127.054 30.0539C127.973 29.4126 128.527 28.5286 128.718 27.4019H132.982C132.826 28.7886 132.358 30.0626 131.578 31.2239C130.815 32.3679 129.767 33.2866 128.432 33.9799C127.115 34.6559 125.546 34.9939 123.726 34.9939ZM143.403 34.4999V30.2879H142.701V25.7119C142.701 24.9839 142.527 24.4379 142.181 24.0739C141.834 23.7099 141.279 23.5279 140.517 23.5279C140.135 23.5279 139.633 23.5366 139.009 23.5539C138.385 23.5712 137.743 23.5972 137.085 23.6319C136.426 23.6666 135.828 23.7012 135.291 23.7359V20.2259C135.689 20.1912 136.157 20.1566 136.695 20.1219C137.232 20.0872 137.787 20.0612 138.359 20.0439C138.931 20.0266 139.468 20.0179 139.971 20.0179C141.427 20.0179 142.649 20.2259 143.637 20.6419C144.642 21.0579 145.405 21.6906 145.925 22.5399C146.445 23.3719 146.705 24.4466 146.705 25.7639V34.4999H143.403ZM138.853 34.8639C137.83 34.8639 136.929 34.6819 136.149 34.3179C135.386 33.9539 134.788 33.4339 134.355 32.7579C133.921 32.0646 133.705 31.2412 133.705 30.2879C133.705 29.2479 133.973 28.3986 134.511 27.7399C135.048 27.0639 135.802 26.5699 136.773 26.2579C137.743 25.9286 138.861 25.7639 140.127 25.7639H143.169V28.0779H140.101C139.373 28.0779 138.809 28.2599 138.411 28.6239C138.029 28.9706 137.839 29.4472 137.839 30.0539C137.839 30.6259 138.029 31.0939 138.411 31.4579C138.809 31.8046 139.373 31.9779 140.101 31.9779C140.569 31.9779 140.985 31.8999 141.349 31.7439C141.73 31.5706 142.042 31.2846 142.285 30.8859C142.527 30.4872 142.666 29.9326 142.701 29.2219L143.689 30.2619C143.602 31.2499 143.359 32.0819 142.961 32.7579C142.579 33.4339 142.042 33.9539 141.349 34.3179C140.673 34.6819 139.841 34.8639 138.853 34.8639ZM154.862 34.9419C152.834 34.9419 151.248 34.5259 150.104 33.6939C148.96 32.8619 148.354 31.6919 148.284 30.1839H151.976C152.046 30.6346 152.314 31.0419 152.782 31.4059C153.268 31.7526 153.987 31.9259 154.94 31.9259C155.668 31.9259 156.266 31.8046 156.734 31.5619C157.22 31.3019 157.462 30.9379 157.462 30.4699C157.462 30.0539 157.28 29.7246 156.916 29.4819C156.552 29.2219 155.902 29.0399 154.966 28.9359L153.848 28.8319C152.132 28.6586 150.841 28.1819 149.974 27.4019C149.125 26.6219 148.7 25.6252 148.7 24.4119C148.7 23.4066 148.952 22.5659 149.454 21.8899C149.957 21.2139 150.65 20.7026 151.534 20.3559C152.436 20.0092 153.458 19.8359 154.602 19.8359C156.44 19.8359 157.922 20.2432 159.048 21.0579C160.175 21.8552 160.764 23.0166 160.816 24.5419H157.124C157.055 24.0739 156.812 23.6839 156.396 23.3719C155.98 23.0426 155.365 22.8779 154.55 22.8779C153.909 22.8779 153.398 22.9992 153.016 23.2419C152.635 23.4846 152.444 23.8139 152.444 24.2299C152.444 24.6286 152.609 24.9319 152.938 25.1399C153.268 25.3479 153.805 25.4952 154.55 25.5819L155.668 25.6859C157.419 25.8766 158.78 26.3619 159.75 27.1419C160.721 27.9219 161.206 28.9706 161.206 30.2879C161.206 31.2412 160.946 32.0732 160.426 32.7839C159.906 33.4772 159.17 34.0146 158.216 34.3959C157.263 34.7599 156.145 34.9419 154.862 34.9419ZM173.158 34.4999L168.66 27.8439H166.658L172.456 20.2519H176.824L171.364 27.3239L171.416 25.2959L177.838 34.4999H173.158ZM163.122 34.4999V15.5199H167.282V34.4999H163.122Z" fill="#012F2F"/>
</g>
<defs>
<clipPath id="clip0_85_1046">
<rect width="178" height="52" fill="white" transform="translate(0.5)"/>
</clipPath>
</defs>
</svg>
