<svg width="173" height="48" viewBox="0 0 173 48" fill="none" xmlns="http://www.w3.org/2000/svg">
<g clip-path="url(#clip0_27_573)">
<path d="M36.0484 2.89718C32.021 0.728906 27.4607 -0.256369 22.8954 0.0554406C22.7768 0.0637648 22.6614 0.0970694 22.5566 0.153162C22.4518 0.209254 22.3601 0.286863 22.2876 0.380878C22.215 0.474892 22.1632 0.583181 22.1356 0.698616C22.108 0.81405 22.1052 0.934012 22.1274 1.0506L22.2308 1.63664C22.1236 1.70851 22.0346 1.80412 21.9705 1.916C21.9065 2.02788 21.8692 2.15302 21.8615 2.28166C21.6394 2.33694 21.447 2.47519 21.3241 2.6679C21.2011 2.86061 21.1569 3.09308 21.2006 3.31736L22.829 12.4249C22.8655 12.6319 22.9741 12.8193 23.1355 12.9542C23.297 13.0891 23.501 13.1627 23.7115 13.1621C25.7682 13.1532 27.8021 13.5922 29.6713 14.4484C29.8612 14.5394 30.0774 14.5593 30.2808 14.5045C30.4841 14.4497 30.6609 14.3239 30.7791 14.1499L35.9893 6.54243C36.0977 6.38414 36.1526 6.19541 36.146 6.00378C36.1393 5.81215 36.0715 5.62766 35.9524 5.47723C36.0222 5.35147 36.0589 5.21005 36.0589 5.06627C36.0589 4.92248 36.0222 4.78106 35.9524 4.6553L36.3216 4.12086C36.3902 4.02452 36.4378 3.91488 36.4612 3.79903C36.4846 3.68318 36.4834 3.56372 36.4577 3.44836C36.4319 3.33301 36.3822 3.22434 36.3117 3.12939C36.2412 3.03444 36.1515 2.95533 36.0484 2.89718Z" fill="#5B45FF"/>
<path d="M48.8284 22.3543C48.82 22.2359 48.7867 22.1207 48.7305 22.0161C48.6743 21.9115 48.5965 21.82 48.5023 21.7475C48.4082 21.6751 48.2997 21.6234 48.184 21.5959C48.0684 21.5683 47.9482 21.5655 47.8314 21.5877L47.392 21.6651C47.3285 21.5695 47.2465 21.4876 47.1507 21.4242C47.0549 21.3609 46.9473 21.3175 46.8344 21.2965C46.814 21.1776 46.77 21.0639 46.705 20.9622C46.64 20.8605 46.5554 20.7727 46.456 20.7041C46.3566 20.6354 46.2445 20.5873 46.1262 20.5624C46.008 20.5376 45.8859 20.5365 45.7672 20.5593L36.4176 22.2143C36.2088 22.2547 36.0207 22.3667 35.8858 22.5309C35.7509 22.6951 35.6778 22.9012 35.6791 23.1136C35.6828 25.2185 35.2267 27.2989 34.3424 29.2099C34.2565 29.401 34.2401 29.616 34.2961 29.8179C34.352 30.0197 34.4768 30.1958 34.6489 30.3156L42.4476 35.6748C42.6186 35.79 42.823 35.8454 43.0289 35.832C43.2348 35.8187 43.4304 35.7374 43.5849 35.601C43.7164 35.6583 43.8602 35.6812 44.003 35.6676C44.1457 35.6541 44.2827 35.6045 44.401 35.5236L44.7702 35.7706C44.8675 35.839 44.9782 35.8861 45.095 35.9087C45.2118 35.9314 45.3321 35.929 45.4479 35.9019C45.5638 35.8747 45.6725 35.8233 45.767 35.7511C45.8615 35.679 45.9396 35.5876 45.9962 35.4831C48.1649 31.4621 49.1469 26.9098 48.8284 22.3543Z" fill="#5B45FF"/>
<path d="M14.4062 17.9057L7.05062 12.8157C6.91981 12.7252 6.76669 12.6722 6.60786 12.6625C6.44903 12.6528 6.29056 12.6866 6.14963 12.7604L5.95024 12.6203C5.8261 12.5346 5.68138 12.4833 5.53088 12.4716C5.38037 12.46 5.22946 12.4884 5.09356 12.554L4.62829 12.2333C4.53016 12.1659 4.41886 12.1199 4.30168 12.0984C4.1845 12.0769 4.06409 12.0803 3.94834 12.1085C3.83259 12.1367 3.72412 12.189 3.63003 12.262C3.53593 12.3349 3.45835 12.4269 3.40236 12.5319C1.23359 16.5478 0.246638 21.094 0.555388 25.6459C0.563804 25.7644 0.597181 25.8798 0.653336 25.9845C0.709492 26.0892 0.787162 26.1809 0.881266 26.2536C0.975371 26.3264 1.08379 26.3784 1.19944 26.4064C1.31509 26.4345 1.43536 26.4378 1.55238 26.4162L1.92164 26.3462C1.99855 26.524 2.13342 26.6707 2.30435 26.7623C2.47529 26.854 2.67224 26.8853 2.86325 26.8511L3.01464 26.8217C3.1038 26.9761 3.23852 27.0993 3.40042 27.1745C3.56233 27.2497 3.74354 27.2732 3.91932 27.2418L12.7261 25.6496C12.9245 25.6101 13.1028 25.5026 13.2302 25.3458C13.3576 25.189 13.4262 24.9927 13.424 24.7908C13.4221 22.7857 13.8515 20.8035 14.6832 18.9783C14.7705 18.7955 14.7906 18.5879 14.74 18.3918C14.6893 18.1957 14.5712 18.0236 14.4062 17.9057Z" fill="#5B45FF"/>
<path d="M47.7317 16.7997C46.586 12.9587 44.4967 9.4643 41.6537 6.63435C41.2623 6.24366 40.8598 5.87139 40.4462 5.52861C40.3562 5.45137 40.2509 5.39392 40.1371 5.36001C40.0233 5.32609 39.9037 5.31647 39.786 5.33177C39.6682 5.34707 39.555 5.38694 39.4538 5.4488C39.3525 5.51066 39.2654 5.59311 39.1982 5.69079L38.792 6.26577C38.6434 6.25526 38.4947 6.28375 38.3606 6.34841C38.2265 6.41307 38.1117 6.51165 38.0276 6.63435V6.65278C37.8382 6.57082 37.6261 6.55688 37.4275 6.61332C37.229 6.66976 37.0561 6.79311 36.9383 6.96238L31.669 14.4924C31.552 14.6646 31.4986 14.8721 31.5182 15.0793C31.5377 15.2864 31.6289 15.4803 31.7761 15.6277C33.242 17.0826 34.3756 18.8365 35.0994 20.7693C35.1717 20.9664 35.3113 21.1318 35.4936 21.2363C35.676 21.3408 35.8894 21.3777 36.0964 21.3406L45.1801 19.7115C45.412 19.6734 45.6196 19.5457 45.7578 19.356C45.896 19.1663 45.9538 18.9299 45.9186 18.6979C46.0855 18.6538 46.2346 18.5593 46.3457 18.4273C46.4567 18.2954 46.5242 18.1325 46.539 17.9608L47.0818 17.8613C47.1968 17.8387 47.3058 17.7926 47.402 17.7258C47.4982 17.659 47.5794 17.5729 47.6406 17.4731C47.7017 17.3733 47.7413 17.2619 47.757 17.146C47.7727 17.0301 47.7641 16.9122 47.7317 16.7997Z" fill="#5B45FF"/>
<path d="M42.9129 38.6274L42.3885 38.2588C42.3949 38.1148 42.3643 37.9714 42.2997 37.8424C42.2351 37.7135 42.1386 37.603 42.0193 37.5217L41.9897 37.4996C42.0701 37.3125 42.0831 37.1035 42.0266 36.908C41.97 36.7124 41.8474 36.5425 41.6796 36.427L34.143 31.2079C33.9689 31.0871 33.757 31.0329 33.5461 31.0552C33.3352 31.0775 33.1395 31.1749 32.9946 31.3295C31.5429 32.7912 29.7921 33.9227 27.862 34.6468C27.6657 34.7194 27.501 34.8583 27.3965 35.0394C27.2919 35.2204 27.2541 35.4323 27.2896 35.6382L28.9328 44.6463C28.9683 44.8761 29.0935 45.0826 29.281 45.2207C29.4684 45.3588 29.703 45.4173 29.9335 45.3835C29.9735 45.5396 30.0573 45.6811 30.175 45.7915C30.2927 45.9018 30.4395 45.9763 30.5982 46.0064L30.6868 46.5002C30.708 46.6169 30.7534 46.7278 30.8202 46.8259C30.887 46.9239 30.9737 47.0068 31.0746 47.0694C31.1755 47.1319 31.2884 47.1726 31.4061 47.1888C31.5237 47.2051 31.6435 47.1965 31.7576 47.1637C35.6082 46.0207 39.1115 43.9352 41.9491 41.0969C42.3405 40.7062 42.7098 40.3057 43.0569 39.8953C43.139 39.8063 43.201 39.7007 43.2386 39.5856C43.2763 39.4706 43.2887 39.3488 43.275 39.2285C43.2614 39.1083 43.222 38.9924 43.1595 38.8886C43.097 38.7849 43.0129 38.6958 42.9129 38.6274Z" fill="#5B45FF"/>
<path d="M28.1574 44.8784L26.6471 36.4896C26.6138 36.2983 26.5135 36.125 26.364 36.0008C26.2145 35.8765 26.0256 35.8094 25.831 35.8114C22.5388 35.8191 19.3638 34.5917 16.9356 32.3725C16.7621 32.2177 16.5959 32.0592 16.4298 31.8934C15.3723 30.8348 14.4987 29.6079 13.845 28.2629C13.6603 27.8943 13.4979 27.4926 13.3502 27.0982C13.2844 26.9188 13.157 26.7685 12.9907 26.674C12.8244 26.5795 12.6299 26.547 12.4418 26.5822L4.11503 28.086C4.00742 28.1054 3.90476 28.146 3.81306 28.2055C3.72135 28.265 3.64243 28.3421 3.5809 28.4323C3.51937 28.5225 3.47647 28.6241 3.45469 28.7311C3.43291 28.8381 3.43269 28.9483 3.45406 29.0553C3.31979 29.0871 3.19566 29.1519 3.09307 29.244C2.99049 29.3361 2.91273 29.4525 2.86694 29.5824L2.2872 29.6893C2.17006 29.7099 2.05859 29.7549 1.96007 29.8215C1.86155 29.888 1.77821 29.9745 1.71548 30.0754C1.65275 30.1763 1.61205 30.2892 1.59603 30.4069C1.58002 30.5245 1.58905 30.6442 1.62254 30.7582C3.02065 35.4416 5.81269 39.5898 9.62804 42.6522C10.5301 43.3859 11.4868 44.05 12.4898 44.6388C16.7026 47.1299 21.5735 48.2866 26.4588 47.956C26.5772 47.9472 26.6923 47.9135 26.7968 47.8572C26.9013 47.801 26.9928 47.7234 27.0652 47.6295C27.1377 47.5356 27.1895 47.4276 27.2173 47.3124C27.2452 47.1972 27.2484 47.0774 27.2268 46.9609L27.1419 46.4928C27.2502 46.4212 27.34 46.3251 27.4041 46.2125C27.4683 46.0998 27.505 45.9736 27.5112 45.8441C27.6173 45.8234 27.7183 45.7819 27.8083 45.7221C27.8983 45.6623 27.9756 45.5853 28.0356 45.4955C28.0957 45.4058 28.1374 45.305 28.1583 45.1991C28.1792 45.0932 28.1789 44.9842 28.1574 44.8784Z" fill="#5B45FF"/>
<path d="M21.9391 12.6717L20.3033 3.64155C20.2861 3.52753 20.2466 3.418 20.187 3.31923C20.1275 3.22045 20.049 3.13437 19.956 3.06591C19.8631 2.99744 19.7575 2.94794 19.6454 2.92022C19.5333 2.89251 19.4168 2.88713 19.3026 2.90439C19.2655 2.75151 19.1859 2.61222 19.0728 2.50263C18.9598 2.39305 18.8179 2.31766 18.6638 2.28518L18.5493 1.65123C18.5268 1.5365 18.4806 1.42772 18.4136 1.33183C18.3466 1.23594 18.2603 1.15506 18.1602 1.09436C18.0601 1.03365 17.9485 0.994458 17.8323 0.979281C17.7162 0.964103 17.5982 0.973276 17.4858 1.00621C13.6337 2.14809 10.1289 4.23366 7.29064 7.07302C6.90169 7.4588 6.53243 7.85686 6.18287 8.26721C6.10433 8.35732 6.04567 8.4629 6.01068 8.57711C5.9757 8.69132 5.96518 8.8116 5.97981 8.93014C5.99443 9.04867 6.03388 9.16281 6.09558 9.26513C6.15728 9.36746 6.23986 9.45568 6.33796 9.52407L6.88076 9.89265C6.84789 10.0531 6.8629 10.2196 6.92394 10.3716C6.98499 10.5236 7.08938 10.6544 7.22417 10.7477L7.25371 10.7699C7.17475 10.9571 7.16247 11.1657 7.21891 11.3609C7.27535 11.556 7.39711 11.726 7.56389 11.8424L15.093 17.0799C15.2669 17.1966 15.4765 17.248 15.6847 17.225C15.8929 17.2021 16.0862 17.1063 16.2304 16.9546C17.6801 15.4923 19.4298 14.3606 21.3593 13.6374C21.5529 13.5681 21.7164 13.434 21.822 13.2579C21.9277 13.0819 21.9691 12.8748 21.9391 12.6717Z" fill="#5B45FF"/>
<path d="M25.9566 17.6922C25.7018 17.5263 25.2587 17.6922 24.8857 18.0423C24.7994 18.1237 24.6851 18.169 24.5663 18.169C24.4476 18.169 24.3333 18.1237 24.2469 18.0423C23.8777 17.6737 23.4383 17.5337 23.1761 17.6922C22.3083 18.2155 23.4752 20.04 23.5823 20.1469H25.5504C25.6575 20.0216 26.78 18.1971 25.9566 17.6922Z" fill="#5B45FF"/>
<path d="M30.0406 29.1842C30.0409 29.3493 29.9805 29.5087 29.871 29.6323C29.7614 29.756 29.6102 29.8352 29.4461 29.855L27.7364 29.9472C26.7518 30.2532 25.7249 30.4025 24.6937 30.3895C23.6625 30.4028 22.6356 30.2535 21.6511 29.9472L19.9377 29.855C19.7739 29.839 19.6215 29.7639 19.5093 29.6437C19.397 29.5235 19.3326 29.3666 19.3281 29.2023C19.3235 29.0381 19.3792 28.8778 19.4847 28.7517C19.5901 28.6255 19.7381 28.5421 19.9008 28.5171H19.9303C19.9303 28.5171 19.9303 28.4802 19.9303 28.4618C19.9303 28.4434 19.9303 28.4618 19.9303 28.4286C19.9303 28.3033 19.9303 28.167 19.9303 28.0158C19.9303 22.067 22.3157 21.4736 23.7927 20.8765H25.495C27.0865 21.4699 29.4608 22.0633 29.4608 28.0121C29.4608 28.167 29.4608 28.3033 29.4608 28.436C29.4608 28.436 29.4608 28.436 29.4608 28.4581C29.4626 28.4704 29.4626 28.4828 29.4608 28.495V28.5171H29.4904C29.6458 28.5464 29.786 28.6293 29.8866 28.7512C29.9871 28.8731 30.0416 29.0263 30.0406 29.1842Z" fill="#5B45FF"/>
<path d="M68.7535 11.8502C70.1352 12.5628 71.2814 13.6583 72.0547 15.0052C72.8695 16.4596 73.28 18.105 73.2437 19.7709C73.2793 21.4188 72.8699 23.0459 72.0583 24.4814C71.2826 25.8189 70.1363 26.9043 68.7572 27.6069C67.2508 28.3661 65.5812 28.7457 63.8941 28.7127H60.7775V35.7894C60.7852 35.9165 60.7661 36.0438 60.7216 36.1631C60.6771 36.2824 60.6081 36.3911 60.5191 36.4823C60.4214 36.569 60.3075 36.6356 60.1839 36.6779C60.0603 36.7203 59.9294 36.7378 59.799 36.7292H55.2387C55.1133 36.738 54.9875 36.7205 54.8692 36.678C54.751 36.6355 54.6429 36.5688 54.5519 36.4823C54.4679 36.3884 54.4035 36.2788 54.3623 36.1598C54.3211 36.0409 54.3039 35.915 54.3118 35.7894V11.6991C54.3077 11.574 54.3284 11.4494 54.3727 11.3323C54.4171 11.2153 54.4843 11.1082 54.5703 11.0172C54.6553 10.9258 54.7589 10.8538 54.8743 10.8061C54.9896 10.7584 55.1139 10.7361 55.2387 10.7408H63.8904C65.578 10.7076 67.2479 11.0886 68.7535 11.8502ZM65.2456 22.4542C65.7186 22.1961 66.112 21.8137 66.3829 21.3485C66.6595 20.8611 66.801 20.3089 66.7927 19.7488C66.8005 19.1864 66.6591 18.632 66.3829 18.1418C66.1173 17.6659 65.7232 17.2738 65.2456 17.0103C64.757 16.7332 64.2049 16.5872 63.643 16.5864H60.7923V22.8523H63.643C64.2026 22.8594 64.7546 22.7223 65.2456 22.4542Z" fill="#5B45FF"/>
<path d="M74.0856 24.791C74.8483 23.5176 75.9308 22.4649 77.226 21.7371C78.5213 21.0092 79.9844 20.6313 81.4707 20.6408C82.9511 20.6331 84.4076 21.0129 85.695 21.7424C86.9824 22.4719 88.0557 23.5256 88.8079 24.7984C89.5652 26.0675 89.9598 27.5194 89.9489 28.9965C89.9621 30.4674 89.5658 31.9131 88.8042 33.1725C88.0459 34.4373 86.9704 35.483 85.6837 36.2062C84.3971 36.9295 82.9437 37.3054 81.467 37.2969C79.9643 37.3105 78.4845 36.9291 77.1763 36.1911C75.8958 35.4741 74.8273 34.4329 74.0782 33.1725C73.3212 31.9181 72.9263 30.4793 72.9372 29.0149C72.9212 27.528 73.3188 26.0658 74.0856 24.791ZM79.2146 30.2238C79.4404 30.6097 79.7622 30.9309 80.1488 31.1563C80.5403 31.3868 80.9866 31.5084 81.4412 31.5084C81.8958 31.5084 82.342 31.3868 82.7336 31.1563C83.1134 30.9284 83.4286 30.6074 83.6493 30.2238C83.8768 29.8359 83.9967 29.3944 83.9967 28.9449C83.9967 28.4953 83.8768 28.0539 83.6493 27.6659C83.4234 27.2801 83.1017 26.9589 82.7151 26.7334C82.3236 26.5029 81.8773 26.3813 81.4227 26.3813C80.9681 26.3813 80.5219 26.5029 80.1303 26.7334C79.7438 26.9589 79.422 27.2801 79.1961 27.6659C78.9686 28.0539 78.8487 28.4953 78.8487 28.9449C78.8487 29.3944 78.9686 29.8359 79.1961 30.2238H79.2146Z" fill="#5B45FF"/>
<path d="M107.699 21.8678V36.0875C107.704 36.1762 107.689 36.2648 107.657 36.3474C107.624 36.4301 107.575 36.5048 107.511 36.5667C107.377 36.6879 107.2 36.7515 107.02 36.7436H103.327C103.198 36.7433 103.071 36.7104 102.958 36.6478C102.843 36.5832 102.758 36.4779 102.718 36.3529L102.393 35.3835C101.835 35.9782 101.161 36.4534 100.414 36.7805C99.667 37.1048 98.8609 37.2705 98.0467 37.267C96.0158 37.267 94.4846 36.6306 93.4531 35.3577C92.4217 34.0849 91.9047 32.242 91.9022 29.8291V21.8678C91.8892 21.7781 91.8974 21.6867 91.926 21.6007C91.9546 21.5147 92.0029 21.4366 92.0671 21.3726C92.1313 21.3085 92.2095 21.2603 92.2957 21.2317C92.3818 21.2032 92.4734 21.195 92.5632 21.208H97.19C97.2798 21.195 97.3714 21.2032 97.4575 21.2317C97.5437 21.2603 97.6219 21.3085 97.6861 21.3726C97.7503 21.4366 97.7986 21.5147 97.8272 21.6007C97.8558 21.6867 97.864 21.7781 97.851 21.8678V29.8549C97.8444 30.0913 97.8903 30.3263 97.9854 30.543C98.0806 30.7596 98.2225 30.9526 98.4012 31.108C98.7562 31.4305 99.221 31.6058 99.7009 31.5982C99.9677 31.6045 100.233 31.5571 100.481 31.459C100.729 31.3608 100.955 31.2139 101.145 31.0269C101.344 30.8248 101.5 30.5835 101.601 30.3183C101.702 30.053 101.746 29.7697 101.732 29.4863L101.75 29.5195V21.8678C101.75 21.4181 101.957 21.1896 102.374 21.1896H107.038C107.129 21.1783 107.222 21.1882 107.308 21.2186C107.395 21.249 107.473 21.299 107.537 21.3647C107.601 21.4304 107.649 21.51 107.677 21.5973C107.705 21.6846 107.713 21.7771 107.699 21.8678Z" fill="#5B45FF"/>
<path d="M120.966 30.6845C121.071 30.6872 121.173 30.7163 121.262 30.7692C121.352 30.8221 121.427 30.897 121.48 30.9868L123.85 34.4182C123.934 34.5375 123.983 34.678 123.991 34.8237C123.99 34.9265 123.964 35.0275 123.914 35.1176C123.864 35.2077 123.793 35.284 123.706 35.3397C122.968 35.9526 122.132 36.4373 121.232 36.7735C120.32 37.1113 119.355 37.2823 118.382 37.2784C116.896 37.2872 115.434 36.9098 114.139 36.1834C112.844 35.457 111.761 34.4066 110.997 33.1356C110.239 31.8812 109.845 30.4424 109.856 28.978C109.844 27.5043 110.238 26.0556 110.997 24.791C111.625 23.7449 112.47 22.8451 113.475 22.1518C114.48 21.4586 115.622 20.9879 116.824 20.7715C118.027 20.5551 119.261 20.5978 120.446 20.897C121.63 21.1961 122.737 21.7446 123.692 22.5058C123.776 22.5593 123.846 22.6326 123.896 22.7193C123.945 22.806 123.973 22.9036 123.976 23.0034C123.97 23.1562 123.922 23.3045 123.836 23.4309L121.502 26.9693C121.454 27.0611 121.382 27.1389 121.295 27.1951C121.208 27.2513 121.107 27.284 121.003 27.2899C120.85 27.2824 120.702 27.2327 120.575 27.1462C120.221 26.9097 119.851 26.6991 119.467 26.5159C119.145 26.3748 118.796 26.3044 118.444 26.3095C118.111 26.2982 117.778 26.3581 117.469 26.4852C117.16 26.6123 116.882 26.8037 116.654 27.0467C116.196 27.5738 115.945 28.2477 115.945 28.9449C115.945 29.642 116.196 30.3159 116.654 30.843C116.883 31.0889 117.161 31.2835 117.471 31.4137C117.781 31.544 118.116 31.607 118.452 31.5986C118.795 31.6034 119.136 31.533 119.449 31.3922C119.83 31.2113 120.2 31.007 120.557 30.7804C120.683 30.714 120.824 30.681 120.966 30.6845Z" fill="#5B45FF"/>
<path d="M140.5 22.5499C141.534 23.8252 142.051 25.6681 142.051 28.0786V36.0325C142.064 36.1222 142.056 36.2136 142.027 36.2996C141.999 36.3856 141.95 36.4637 141.886 36.5277C141.822 36.5918 141.744 36.64 141.658 36.6686C141.572 36.6971 141.48 36.7053 141.39 36.6923H136.756C136.666 36.7046 136.575 36.696 136.49 36.6672C136.404 36.6383 136.326 36.59 136.262 36.526C136.199 36.4621 136.151 36.3842 136.122 36.2985C136.094 36.2129 136.086 36.1218 136.099 36.0325V28.0528C136.105 27.8161 136.058 27.5809 135.963 27.3642C135.867 27.1475 135.724 26.9547 135.545 26.7996C135.189 26.4781 134.725 26.303 134.245 26.3094C133.979 26.3037 133.714 26.3513 133.467 26.4494C133.22 26.5476 132.994 26.6942 132.805 26.8807C132.605 27.0832 132.449 27.3251 132.347 27.5909C132.245 27.8568 132.2 28.1408 132.214 28.4251V28.3919V36.121C132.221 36.2041 132.21 36.2878 132.18 36.3659C132.151 36.4441 132.105 36.5147 132.045 36.5726C131.984 36.6306 131.912 36.6743 131.833 36.7008C131.753 36.7272 131.669 36.7357 131.586 36.7255H126.878C126.796 36.7318 126.714 36.7207 126.636 36.6928C126.559 36.665 126.489 36.621 126.43 36.5638C126.371 36.5066 126.324 36.4376 126.294 36.3612C126.264 36.2849 126.25 36.203 126.254 36.121V11.3451C126.248 11.2602 126.26 11.1748 126.289 11.0948C126.319 11.0148 126.365 10.9418 126.424 10.8807C126.486 10.8256 126.557 10.7832 126.635 10.756C126.713 10.7288 126.796 10.7173 126.878 10.7222H131.586C131.671 10.7121 131.756 10.7213 131.837 10.7491C131.917 10.7768 131.99 10.8224 132.05 10.8824C132.11 10.9423 132.156 11.0152 132.183 11.0953C132.211 11.1755 132.22 11.2609 132.21 11.3451V21.9197C132.736 21.5108 133.325 21.1897 133.953 20.9687C134.581 20.7513 135.242 20.6404 135.907 20.6407C137.935 20.6407 139.466 21.2771 140.5 22.5499Z" fill="#5B45FF"/>
<path d="M145.618 11.6803C145.609 11.5526 145.627 11.4245 145.67 11.3039C145.714 11.1834 145.781 11.0731 145.869 10.98C145.963 10.8958 146.073 10.8313 146.192 10.7901C146.311 10.749 146.438 10.7321 146.563 10.7404H162.696C162.826 10.7318 162.955 10.7493 163.078 10.7917C163.2 10.8341 163.313 10.9006 163.409 10.9874C163.495 11.0802 163.561 11.1895 163.604 11.3085C163.646 11.4276 163.664 11.5541 163.656 11.6803V15.8489C163.664 15.9751 163.646 16.1016 163.604 16.2206C163.561 16.3397 163.495 16.449 163.409 16.5418C163.313 16.6285 163.2 16.6951 163.078 16.7375C162.955 16.7799 162.826 16.7974 162.696 16.7888H152.099V22.5607H160.326C160.455 22.5517 160.585 22.569 160.707 22.6114C160.83 22.6538 160.942 22.7206 161.038 22.8077C161.125 22.9003 161.192 23.0095 161.235 23.1286C161.278 23.2476 161.296 23.3742 161.289 23.5006V26.8805C161.296 27.0069 161.278 27.1334 161.235 27.2525C161.192 27.3716 161.125 27.4807 161.038 27.5734C160.942 27.6605 160.83 27.7272 160.707 27.7697C160.585 27.8121 160.455 27.8293 160.326 27.8203H152.091V35.7522C152.106 35.8793 152.092 36.0082 152.051 36.1294C152.009 36.2506 151.942 36.361 151.852 36.4528C151.763 36.5446 151.654 36.6153 151.534 36.6598C151.413 36.7044 151.285 36.7217 151.157 36.7105H146.556C146.428 36.7209 146.3 36.7031 146.18 36.6584C146.06 36.6136 145.951 36.5429 145.861 36.4514C145.772 36.3599 145.704 36.2497 145.661 36.1289C145.619 36.008 145.605 35.8794 145.618 35.7522V11.6803Z" fill="#5B45FF"/>
<path d="M167.282 17.3712C166.488 16.9077 165.909 16.1492 165.672 15.2611C165.435 14.3731 165.56 13.4277 166.02 12.6313C166.322 12.1078 166.758 11.6731 167.282 11.3708C167.812 11.0618 168.414 10.8989 169.027 10.8989C169.64 10.8989 170.243 11.0618 170.772 11.3708C171.299 11.6761 171.736 12.1147 172.038 12.6424C172.345 13.1686 172.507 13.7663 172.507 14.375C172.508 14.9837 172.347 15.5817 172.042 16.1085C171.736 16.6353 171.297 17.0722 170.768 17.3748C170.239 17.6775 169.639 17.8352 169.029 17.8319C168.416 17.8358 167.813 17.6768 167.282 17.3712ZM171.835 21.3334C171.891 21.3932 171.933 21.4635 171.961 21.5402C171.988 21.6168 171.999 21.6982 171.994 21.7794V36.0877C172.006 36.172 171.999 36.258 171.972 36.3389C171.945 36.4198 171.9 36.4934 171.84 36.5538C171.78 36.6142 171.706 36.6598 171.625 36.687C171.544 36.7143 171.458 36.7223 171.374 36.7105H166.666C166.582 36.7157 166.498 36.7041 166.418 36.6762C166.339 36.6483 166.266 36.6049 166.204 36.5484C166.148 36.4863 166.105 36.4134 166.077 36.3343C166.05 36.2551 166.039 36.1712 166.045 36.0877V21.7794C166.041 21.6976 166.053 21.6157 166.081 21.539C166.11 21.4622 166.154 21.3922 166.212 21.3334C166.336 21.2232 166.499 21.1663 166.666 21.175H171.37C171.454 21.1688 171.539 21.1796 171.619 21.2068C171.699 21.2341 171.772 21.2771 171.835 21.3334Z" fill="#5B45FF"/>
</g>
<defs>
<clipPath id="clip0_27_573">
<rect width="172" height="48" fill="white" transform="translate(0.5)"/>
</clipPath>
</defs>
</svg>
